<mxfile host="app.diagrams.net" modified="2024-01-21T16:06:37.336Z" agent="Mozilla/5.0 (Windows NT 10.0; Win64; x64) AppleWebKit/537.36 (KHTML, like Gecko) Chrome/120.0.0.0 Safari/537.36" etag="9QZAncCJ4su8fVONgTAd" version="22.1.21" type="device" pages="4">
  <diagram id="oBBg_RuywJsrisvh-r3L" name="INNER JOIN">
    <mxGraphModel dx="1050" dy="522" grid="0" gridSize="10" guides="1" tooltips="1" connect="1" arrows="1" fold="1" page="1" pageScale="1" pageWidth="827" pageHeight="569" background="none" math="0" shadow="0">
      <root>
        <mxCell id="0" />
        <mxCell id="1" parent="0" />
        <mxCell id="cSKeqTepGHjuNAZNJe_F-1" value="&lt;div style=&quot;text-align: justify;&quot;&gt;&lt;b style=&quot;background-color: initial;&quot;&gt;&lt;font style=&quot;font-size: 14px;&quot;&gt;T1&lt;/font&gt;&lt;/b&gt;&lt;/div&gt;" style="ellipse;whiteSpace=wrap;html=1;aspect=fixed;align=center;" parent="1" vertex="1">
          <mxGeometry x="328.1" y="121" width="100" height="100" as="geometry" />
        </mxCell>
        <mxCell id="cSKeqTepGHjuNAZNJe_F-2" value="&lt;b&gt;&lt;font style=&quot;font-size: 15px;&quot;&gt;T2&lt;/font&gt;&lt;/b&gt;" style="ellipse;whiteSpace=wrap;html=1;aspect=fixed;fillColor=#FFFFFF;" parent="1" vertex="1">
          <mxGeometry x="398.1" y="120" width="100" height="100" as="geometry" />
        </mxCell>
        <mxCell id="cSKeqTepGHjuNAZNJe_F-3" value="" style="whiteSpace=wrap;html=1;shape=mxgraph.basic.pointed_oval;fillColor=#FF0000;" parent="1" vertex="1">
          <mxGeometry x="392.1" y="134" width="42" height="72" as="geometry" />
        </mxCell>
        <mxCell id="cSKeqTepGHjuNAZNJe_F-5" value="SELECT * &lt;br&gt;FROM T1 &lt;br&gt;JOIN T2 &lt;br&gt;&lt;span style=&quot;white-space: pre;&quot;&gt;&#x9;&lt;/span&gt;ON T1.ID = T2.ID" style="text;strokeColor=none;align=left;fillColor=none;html=1;verticalAlign=middle;whiteSpace=wrap;rounded=0;" parent="1" vertex="1">
          <mxGeometry x="328.1" y="233" width="150" height="43" as="geometry" />
        </mxCell>
        <mxCell id="-QHc0Wb3h1XNZ17knfgu-1" value="[INNER] JOIN" style="text;strokeColor=none;align=center;fillColor=none;html=1;verticalAlign=middle;whiteSpace=wrap;rounded=0;fontStyle=1;fontSize=50;" parent="1" vertex="1">
          <mxGeometry x="235" y="30" width="356.2" height="30" as="geometry" />
        </mxCell>
        <mxCell id="KtAUQgsY4m1wh4RDuwuU-1" value="&lt;div style=&quot;font-size: 17px;&quot;&gt;&lt;b style=&quot;&quot;&gt;&lt;font style=&quot;font-size: 17px;&quot;&gt;Specifies a join between two tables with an explicit join clause.&lt;/font&gt;&lt;/b&gt;&lt;/div&gt;&lt;div style=&quot;font-size: 17px;&quot;&gt;&lt;b&gt;&lt;font style=&quot;font-size: 17px;&quot;&gt;&lt;br&gt;&lt;/font&gt;&lt;/b&gt;&lt;/div&gt;&lt;div style=&quot;font-size: 17px;&quot;&gt;&lt;font style=&quot;font-size: 17px;&quot;&gt;&lt;b&gt;It&#39;s equal to have a query with WHERE clause&lt;/b&gt;&lt;/font&gt;&lt;/div&gt;&lt;div style=&quot;&quot;&gt;&lt;font style=&quot;font-size: 12px;&quot;&gt;SELECT * FROM T1, T2 WHERE T1.ID = T2.ID&lt;/font&gt;&lt;/div&gt;&lt;div style=&quot;&quot;&gt;&lt;font style=&quot;&quot;&gt;&lt;div style=&quot;font-size: 12px; border-color: var(--border-color);&quot;&gt;&lt;font style=&quot;border-color: var(--border-color); font-size: 12px;&quot;&gt;&lt;b style=&quot;border-color: var(--border-color);&quot;&gt;&lt;br&gt;&lt;/b&gt;&lt;/font&gt;&lt;/div&gt;&lt;div style=&quot;font-size: 17px; border-color: var(--border-color);&quot;&gt;&lt;font style=&quot;border-color: var(--border-color);&quot;&gt;&lt;b style=&quot;border-color: var(--border-color);&quot;&gt;It can be simplified with USING clause&lt;/b&gt;&lt;/font&gt;&lt;/div&gt;&lt;div style=&quot;border-color: var(--border-color);&quot;&gt;&lt;font style=&quot;border-color: var(--border-color); font-size: 12px;&quot;&gt;SELECT * FROM T1 JOIN T2 USING (ID)&lt;/font&gt;&lt;/div&gt;&lt;/font&gt;&lt;/div&gt;" style="text;strokeColor=none;align=center;fillColor=none;html=1;verticalAlign=middle;whiteSpace=wrap;rounded=0;aspect=fixed;" parent="1" vertex="1">
          <mxGeometry x="157" y="320" width="512.6" height="100" as="geometry" />
        </mxCell>
        <mxCell id="WTYuVUIlwLQK71MJgaTJ-10" value="" style="shape=image;verticalLabelPosition=bottom;labelBackgroundColor=default;verticalAlign=top;aspect=fixed;imageAspect=0;image=data:image/png,iVBORw0KGgoAAAANSUhEUgAAAGQAAABkCAYAAABw4pVUAAAAIGNIUk0AAHomAACAhAAA+gAAAIDoAAB1MAAA6mAAADqYAAAXcJy6UTwAAAAGYktHRAD/AP8A/6C9p5MAAAAHdElNRQfoARUPHiCIF+V4AAAQOElEQVR42u2ceXAU1b7HP90zk1myMpOQzCRhi0AWlYeg91YBjzJcfTxLyrr+4VaUz7KuUJZVWC7IUpZFqf8QLPV5q5RAFH3+8eqp4MK916dPCIhCSNRgZImGrJB9m0yWWbvP+6OTIYGEJJNAmut8qyapmulz+nfOp79n7W5JCCGISjeSZzqAqEYqCkRnigLRmaJAdKYoEJ0pCkRnigLRmaJAdKYoEJ0pCkRnigLRmaJAdKYoEJ0pCkRnigLRmaJAdKYoEJ3phgEyEFAIhNRxj+vqD/J/v3Rx5mI/AIGQykBAmenwJyzjTAcwEZXX93KgrB17rIn/WJWGPc406nFCwKdl7XxV0YUzycyGfBffnO6ioy/I/bensHRu/EwXZVzp3iHldb0UFTfza9MAZdUe6jp8Yx7b0hOgvK4PCQipguo2L6XVvfzaNEBRcTPldb0zXZxxpWsg5fW9FB1ppqM3iCTBIqeNucmWMY+vaOijsy+IABamWflDVgIL06xIEnT0Bik6on8ougVyqr6Pd4s1GCBYlGbjL3e6cIzRXPmCKmU1HhRVYDLILJ+fQGpiDH+508WiNBsg6OgN8u6RZk7V98108caULoH8XN9HUXET7cNgbFyTTobdPGaaunYfNW1eJAmcSTHkZdgAyLCb2bgmPQylvTdIUXETP+sUiu6A/NzQR9GRSzAWptnYkH91GAA/1Hro92ujqSVz45gVe8lJGXYzG/LTWTgcypEmfm7QHxRdAalo0JzR5tFg3JRqY2O+i0zH1WF094fCzVCs2cDyBVeOpjIdZjbmu7gpVYPS5tGcUqEzKLoBUtHQx97LYaxxkemwjJv2bGM/ze4AQsCC2Vbmp1hHPS7TYWHjmpFQ9uoMii6AVFwY6Yys2VY25LuYMwEYiiooq/YQDKkYZInlC+KxmMYu1hyHhY35LrJm69MpMw7kfKuXouJmWj3a0FZzRvpVh7fDdbHLT2XTAJIEjjgTS+aMP/mbk3zJKZIErR5tSFzd6p3p6ph5IJVN/bS4/cgSGGWJu2+1TxgGaBNH90AIISAvI5bUxJgJpZubbOHfbrVjlCVkCVrcfs419c90dcw8kFsy45jjsKAKQUgV/KO8k/MTvFL7/Qo/1vUihMBskrk9KwFZmth5z7d6+Xt5JyFVoArBHIeFWzLjZro6Zh7I3GQLT+S7yLBbEEJQ1+Flz6HGCTUfVS1eGgaXUjLtFhY7bRM6Z3Wrlz2HG6nr8CKEIMOuxTAZZ14rzTgQgMVOGxvyXaTP0oa39Z0+Cg9fHYoAymo8eAMqSBK3zY8j3mIY91zVrV4KDzdSPwgyfZa2CDlRmNdaugACQ1DSL0HpGITSNjqUdk+A0xf6kSRIsBq4bd74nXl122gw0nUDA3QEBCDbpUFxDYOy51ATNaNAqWjop92jzT0WO23jzldq2rzsOdQUhuEahJHt0g8M0BkQGILiwpWkQanr8FJ4GZRASOWHGg8hVWA0SNy+IAGTYezevKZNy6OuQ8vDlaRPGKBDIAA5rlieyHfhHANKfYePqlZtITE1MYa8jNgx8xodhoscHcIAnQIByE2PZcNlUIqKm2j3BPmptpc+nwICbs2MIzl+9CX5Nk+AouJLMJxJZp7Id5GTHjvhOK63dAsEBqHcqUFRheaMyqZ+frnYjxACa4yB2xckjJn+YpefunYfqiC8pZurYxhwA+yp52bEsjHfxac/dGCPM7IwzcaxX90AZKfbyEq1jpk2a7aVVdlJdPUH+fPyFN3DAJBulOfUAyEVWZYwyhKN3X7Ot3hZ7LKRNs5SSUgVqKogxqjrxiCsGwbI70U3xmXzO1IUiM4UBaIzRYHoTLof9l5PKYqCECL8iVQmkwlJmuDGzGWKGEhnZyfHjx/nzjvvJC7u+m7snDhxArPZzG233RZxHj09PdTV1VFVVUVNTQ2NjY309PQQCATCYCYrRVFwOp28/PLL2O32iOKKGEh/fz87duzg448/5oUXXuDmm2+OuHImKrfbzXvvvUdhYSHbt2+fNBBFUTh9+jQHDx7kyJEj1NTU4PF4CAaDU3LEkFRVZeHChfj9/ojziBiIJEkEg0E+/fRTKioq2LRpEw899BA227VZtCspKaGgoICjR4+iKAqyPLnur6qqit27d3Pw4EFaW1sBkGUZSZIwGMbf2JqIVFWddFyXa0p9yFBh6urq2Lp1K8eOHeP5558nLy9vWgoII13R0tKCwWCYdKEPHjzIq6++SmVlJbIsXwFgOvoN0ByoKFN7FmVaOnVZlgkGgxw4cIDy8nKefvppHnzwwSm75eTJkxQUFHDkyBEURYnoSv7oo4/Ytm0bHR0dI9KrqoqqqphMJhITE0lKSiI+Ph6r1TqlqzwjI4OYmInd+TKapm2UNdwtW7Zs4dtvv43YLW63m3379lFYWEhzc3NErgD47rvveOmll+js7AzDGHLB/PnzWbVqFStWrGDx4sWkpKQQGxuL0WiMeIQkSRKyLGM2myNKD9dg2DtVt0yHK0CDumvXLpqamjAatWKqqkpycjKPP/44Dz/8MPPmzYu48q+Vrsk85HK3DPUtubm5V63A999/n927d1/hCiHEpCvu0KFDnDhxYgSMjIwMXnvtNdauXXu96nfSmlYgZrOZQCCAqqph+waDQfbv3z/CLVbryD2M0tJSCgoKKC4uvsIVqqpis9nw+/0T7nQVReHLL7/E5/NhNBoRQmCxWNi+ffukYHi9Xvr7J3c3oyzLJCUlRdwPTRsQRVG46667yM3NpaioiPb2dgwGQ9gttbW1Ybc899xz5Obm0tPTw759+0Z1xVCHe++997JkyRJ27dpFIBCYUCxdXV2cOXNmRF7Lli1j3bp1kyrTZ599xptvvjnhyhVC4HK5eOedd0hNTZ1ZIEIIHA4HW7duZcWKFRQUFPD999+HmxtZlgkEAnzyySecOnWKRx55hJMnT3Lo0KErXKEoCpmZmTz11FM89thjlJSUTCqW7u5uurq6ws2cEIJly5YRHz+5p3C7uro4e/ZseL4ynhRFwev1EgqFIq7HaW2yhpqUVatWkZuby969e0d1S3V1Na+88gqgWfxyV6xdu5bNmzezdOnScEEno1AoNCKNJEmThjGUbrIjPJPJNKVh8zVbXBxyy8qVK9m5c+cVbrlcw12xfv36iCpwSDabDYvFEj6fEILm5uZJ56OqKqFQ6KoVPPyCAsYs30R1zVd7V65cSU5ODnv27OHdd98Nu2V4oUdzxVRkt9tJS0vjwoUL4UorKSmhubkZp9M54XxycnJYv379VSu4tLSU8+fPh4+Z6jD6uiy/OxwOtm3bFnbL8ePHUVUVIcS0uWK4EhISWL58OaWlpYAGpLKyksLCQl588cXwUHg8rVmzhvz8/DF/lySJTZs28dtvv13hkkh1XTeoVq1axQcffMDmzZtxOp3cc889fPjhhzz55JPTBmNI69atY9asWeF+TQjBnj172LlzJ263e8L5SJI05mcsTWVN7LrvGDocDrZs2cKBAwfYvXv3tDRRo+mOO+7gvvvuQ1W1F9ZIkoTX6+WNN97g0UcfZf/+/bS2tk55QXG6Z/ozsmMoyzI5OTnX9Bwmk4lnn32WM2fOUFZWFl6jUlWVo0ePUlJSQlZWFkuXLiUvL485c+aQnJyMxWKZ8OKgJEl0d3dPK5R/6i3cefPm8frrr/PMM8/w448/jtj/CIVCnDt3LjyBNJlMmM1mjEbjpNbPBgYGRhw/Vcf9UwMBWLJkCXv37mXnzp188cUX4QocGp4OdcaKokx6mQSmv8n6Xdx1kpWVxVtvvcXbb79Nfn4+sbGx4c2kodEeXL0Dn2jHPrTPEqmm5JDhJ59qIFeTEGLK+VssFu6//37uvvtufvrpJ4qLiykrK6O2tha3243f7w8veUTa7KiqGvENEkOK+N7evr4+Pv/8c3p7e8OdZW5uLqtXr444mLHU0NDAV199NQLI6tWryc7OnlK+AwMDtLS00NTURGtrK93d3fh8vohvehBCkJSUxAMPPBDxMD56s7XO9LvoQ24kRYHoTFEgOlMUiM4UBaIzTWkeUtPmpd+vkpdho2dAobrVyyKnlQSrlq3HG6Kqxctip424wfeQNLsDdPUFyU2PxeMN0eYJcFOaDW9ApaHDx8I0K519QQb8KvNSLHi8ISqbBggpgkyHhUyHmWZ3gKCijvmCs4ZOH7VtPpJijWQ7bZhNMoGQytnGAQb8CvY4E9kuGx5viJo2H9kuG7IE1W0+smZb8QYUKpsGEIDZKJGXEYc3oGixptoIKirVbV4WpFgxm2SEgKqWATr6gliMMnmZsZgjfKYxYocIAf841cnubxpp7Qny3a9u/vr1xREvjCk576HwcCM/1F56V255XS//+b8XqGzqp6HTz9/KOxFC0Nkb5EBZO/6gyukL/Rw+061VboefT0rbqOvw0TOgTdx+quvlWGXPqHFVNPTxX8daaHb7OXrOzfGqnsGLQ+F/SlqpbBqgo1e7WaKxy89fv77I0XNuen0KB8ra6POF8IdUKi708d/HW6lt9yGEoL7Dx9/KO1GF0I4tbcfj1baJVSH4+6lOTp730NwTIKTMwPK7ogoCIYE93khZjYfadh/OpBjtgX7AH1SpbBpgTZ6dsxf7CQ4LMjnexOGzbjzewZsBhPZn+JRIIML/jbLE7AQTsxNN4Yth6PfLdbyqhzsWJPDn5Sn8a3YSyfEm1MFDZUnCHmcMv0tFFVosp+p7qWv3hb+bnRDD3bfYSUuK4d+XOMIuCIcnGMxzWLxCewlO+iwz1pjIe4KIUwYVQVBR+UNWIt//2oMkwcI0G55BIPUdPi50+pCA2nYvF7v8gwUW5KbHkhJv4ug5t5aZpP1RBSBJqGJkdSsq9PkUFPXStxJXriOJwYoxGSV6vCFOnu9hf2k7fT4FSdLO3e9XCYSGNq0gNSGG5QsS+PqXrvD3Q78NxTuaJAnky96W5g2oeAMKU5lqRwwkEFIJKoJsl41Ys8yiNBvJ8aawQ8rr+8h0WJgVa8Q5y8yp+t5wQWVZ4k83z8I9EMIfVBECEm0GjAaJA2VtlNX0kmkf2T9IkkTvYBMhSVqb/c3pbgb8w+4uAW5fkMD3v/VQWu0ZjFOMcJNBJhzjUIX/8aYEbDEy3X3aex8vhxKGPZSPpL3N7quKLs63esOLjAZZwh9UR4CdrAw7duzYEWniRJuRrNlW5jgsLHLacMQZSY43YY8zoaiClYsSuTkzjqxUK2ajTGpiDBaTTFpiDBl2C3OStY8zyYzFJDMvxUqfTyHbZeOPCxMxGiRMBolYiwFZknAM5m0xyVhMBsxGmQy7ZcSbgJxJZlITY+juD7FgtpV/mReHMykGk0EmzqzlE2814EwyYzRIOOJjyHRYmJdsxWU3MzfZgtEgYZC15i19lhlZ1uJIToghLdGMQZaINRsxGCRSBmOyxhgwGWVijDIZdi3vSBRdy9KZovMQnSkKRGeKAtGZokB0pigQnSkKRGeKAtGZokB0pigQnSkKRGeKAtGZokB0pigQnSkKRGeKAtGZokB0pigQnen/AUT6f4UtKsg3AAAAJXRFWHRkYXRlOmNyZWF0ZQAyMDI0LTAxLTIxVDE1OjMwOjE0KzAwOjAw3KxkFQAAACV0RVh0ZGF0ZTptb2RpZnkAMjAyNC0wMS0yMVQxNTozMDoxNCswMDowMK3x3KkAAAAodEVYdGRhdGU6dGltZXN0YW1wADIwMjQtMDEtMjFUMTU6MzA6MzIrMDA6MDDbEc8xAAAAAElFTkSuQmCC;" vertex="1" parent="1">
          <mxGeometry x="363.1" y="469" width="100" height="100" as="geometry" />
        </mxCell>
      </root>
    </mxGraphModel>
  </diagram>
  <diagram id="78CizRcOb5Vf6gUzNvi1" name="LEFT JOIN">
    <mxGraphModel dx="1050" dy="522" grid="0" gridSize="10" guides="1" tooltips="1" connect="1" arrows="1" fold="1" page="1" pageScale="1" pageWidth="827" pageHeight="569" math="0" shadow="0">
      <root>
        <mxCell id="0" />
        <mxCell id="1" parent="0" />
        <mxCell id="IIBH94YcqwisMS57cl9P-1" value="&lt;b&gt;&lt;font style=&quot;font-size: 15px;&quot;&gt;T2&lt;/font&gt;&lt;/b&gt;" style="ellipse;whiteSpace=wrap;html=1;aspect=fixed;" parent="1" vertex="1">
          <mxGeometry x="527" y="120" width="100" height="100" as="geometry" />
        </mxCell>
        <mxCell id="IIBH94YcqwisMS57cl9P-2" value="&lt;b style=&quot;border-color: var(--border-color); text-align: justify; background-color: initial;&quot;&gt;&lt;font style=&quot;border-color: var(--border-color); font-size: 14px;&quot;&gt;T1&lt;/font&gt;&lt;/b&gt;" style="ellipse;whiteSpace=wrap;html=1;aspect=fixed;fillColor=#FF0000;" parent="1" vertex="1">
          <mxGeometry x="459" y="120" width="100" height="100" as="geometry" />
        </mxCell>
        <mxCell id="IIBH94YcqwisMS57cl9P-3" value="" style="whiteSpace=wrap;html=1;shape=mxgraph.basic.pointed_oval" parent="1" vertex="1">
          <mxGeometry x="523" y="134" width="42" height="72" as="geometry" />
        </mxCell>
        <mxCell id="IIBH94YcqwisMS57cl9P-4" value="&lt;b style=&quot;border-color: var(--border-color);&quot;&gt;&lt;font style=&quot;border-color: var(--border-color); font-size: 15px;&quot;&gt;T2&lt;/font&gt;&lt;/b&gt;" style="ellipse;whiteSpace=wrap;html=1;aspect=fixed;" parent="1" vertex="1">
          <mxGeometry x="269" y="120" width="100" height="100" as="geometry" />
        </mxCell>
        <mxCell id="IIBH94YcqwisMS57cl9P-5" value="&lt;b style=&quot;border-color: var(--border-color); text-align: justify; background-color: initial;&quot;&gt;&lt;font style=&quot;border-color: var(--border-color); font-size: 14px;&quot;&gt;T1&lt;/font&gt;&lt;/b&gt;" style="ellipse;whiteSpace=wrap;html=1;aspect=fixed;fillColor=#FF0000;" parent="1" vertex="1">
          <mxGeometry x="201" y="120" width="100" height="100" as="geometry" />
        </mxCell>
        <mxCell id="IIBH94YcqwisMS57cl9P-6" value="" style="whiteSpace=wrap;html=1;shape=mxgraph.basic.pointed_oval;fillColor=#FF0000;" parent="1" vertex="1">
          <mxGeometry x="265" y="134" width="42" height="72" as="geometry" />
        </mxCell>
        <mxCell id="IIBH94YcqwisMS57cl9P-8" value="SELECT * &lt;br&gt;FROM T1 &lt;br&gt;LEFT JOIN T2&lt;br&gt;&lt;span style=&quot;white-space: pre;&quot;&gt;&#x9;&lt;/span&gt;ON T1.ID = T2.ID" style="text;strokeColor=none;align=left;fillColor=none;html=1;verticalAlign=middle;whiteSpace=wrap;rounded=0;" parent="1" vertex="1">
          <mxGeometry x="201" y="236" width="190" height="43" as="geometry" />
        </mxCell>
        <mxCell id="IIBH94YcqwisMS57cl9P-9" value="SELECT * &lt;br&gt;FROM T1 &lt;br&gt;LEFT JOIN T2&lt;br&gt;&lt;span style=&quot;white-space: pre;&quot;&gt;&#x9;&lt;/span&gt;ON T1.ID = T2.ID&lt;br&gt;WHERE T2.ID IS NULL" style="text;strokeColor=none;align=left;fillColor=none;html=1;verticalAlign=middle;whiteSpace=wrap;rounded=0;" parent="1" vertex="1">
          <mxGeometry x="459" y="236" width="190" height="43" as="geometry" />
        </mxCell>
        <mxCell id="SqFE6KvhrBZX82Okhacv-1" value="LEFT JOIN" style="text;strokeColor=none;align=center;fillColor=none;html=1;verticalAlign=middle;whiteSpace=wrap;rounded=0;fontStyle=1;fontSize=50;" parent="1" vertex="1">
          <mxGeometry x="235" y="30" width="356.2" height="30" as="geometry" />
        </mxCell>
        <mxCell id="CJ0jqF5ADzRUrKohIXTI-1" value="&lt;div style=&quot;font-size: 17px;&quot;&gt;&lt;div style=&quot;text-align: left;&quot;&gt;&lt;br&gt;&lt;/div&gt;&lt;b&gt;&lt;span style=&quot;text-align: start; background-color: initial;&quot;&gt;Specifies a join between two tables with an explicit join clause, preserving unmatched rows from T1 table.&lt;/span&gt;&lt;/b&gt;&lt;/div&gt;" style="text;strokeColor=none;align=center;fillColor=none;html=1;verticalAlign=middle;whiteSpace=wrap;rounded=0;" parent="1" vertex="1">
          <mxGeometry x="156.8" y="313" width="512.6" height="90" as="geometry" />
        </mxCell>
        <mxCell id="YapXbTRb9XJhQI4BUci6-1" value="" style="endArrow=classic;html=1;rounded=0;" parent="1" edge="1">
          <mxGeometry width="50" height="50" relative="1" as="geometry">
            <mxPoint x="297" y="296" as="sourcePoint" />
            <mxPoint x="337" y="345" as="targetPoint" />
          </mxGeometry>
        </mxCell>
        <mxCell id="QrQwkAUfQEni8QdHXfdm-1" value="" style="shape=image;verticalLabelPosition=bottom;labelBackgroundColor=default;verticalAlign=top;aspect=fixed;imageAspect=0;image=data:image/png,iVBORw0KGgoAAAANSUhEUgAAAGQAAABkCAYAAABw4pVUAAAAIGNIUk0AAHomAACAhAAA+gAAAIDoAAB1MAAA6mAAADqYAAAXcJy6UTwAAAAGYktHRAD/AP8A/6C9p5MAAAAHdElNRQfoARUPHiCIF+V4AAAQOElEQVR42u2ceXAU1b7HP90zk1myMpOQzCRhi0AWlYeg91YBjzJcfTxLyrr+4VaUz7KuUJZVWC7IUpZFqf8QLPV5q5RAFH3+8eqp4MK916dPCIhCSNRgZImGrJB9m0yWWbvP+6OTIYGEJJNAmut8qyapmulz+nfOp79n7W5JCCGISjeSZzqAqEYqCkRnigLRmaJAdKYoEJ0pCkRnigLRmaJAdKYoEJ0pCkRnigLRmaJAdKYoEJ0pCkRnigLRmaJAdKYoEJ3phgEyEFAIhNRxj+vqD/J/v3Rx5mI/AIGQykBAmenwJyzjTAcwEZXX93KgrB17rIn/WJWGPc406nFCwKdl7XxV0YUzycyGfBffnO6ioy/I/bensHRu/EwXZVzp3iHldb0UFTfza9MAZdUe6jp8Yx7b0hOgvK4PCQipguo2L6XVvfzaNEBRcTPldb0zXZxxpWsg5fW9FB1ppqM3iCTBIqeNucmWMY+vaOijsy+IABamWflDVgIL06xIEnT0Bik6on8ougVyqr6Pd4s1GCBYlGbjL3e6cIzRXPmCKmU1HhRVYDLILJ+fQGpiDH+508WiNBsg6OgN8u6RZk7V98108caULoH8XN9HUXET7cNgbFyTTobdPGaaunYfNW1eJAmcSTHkZdgAyLCb2bgmPQylvTdIUXETP+sUiu6A/NzQR9GRSzAWptnYkH91GAA/1Hro92ujqSVz45gVe8lJGXYzG/LTWTgcypEmfm7QHxRdAalo0JzR5tFg3JRqY2O+i0zH1WF094fCzVCs2cDyBVeOpjIdZjbmu7gpVYPS5tGcUqEzKLoBUtHQx97LYaxxkemwjJv2bGM/ze4AQsCC2Vbmp1hHPS7TYWHjmpFQ9uoMii6AVFwY6Yys2VY25LuYMwEYiiooq/YQDKkYZInlC+KxmMYu1hyHhY35LrJm69MpMw7kfKuXouJmWj3a0FZzRvpVh7fDdbHLT2XTAJIEjjgTS+aMP/mbk3zJKZIErR5tSFzd6p3p6ph5IJVN/bS4/cgSGGWJu2+1TxgGaBNH90AIISAvI5bUxJgJpZubbOHfbrVjlCVkCVrcfs419c90dcw8kFsy45jjsKAKQUgV/KO8k/MTvFL7/Qo/1vUihMBskrk9KwFZmth5z7d6+Xt5JyFVoArBHIeFWzLjZro6Zh7I3GQLT+S7yLBbEEJQ1+Flz6HGCTUfVS1eGgaXUjLtFhY7bRM6Z3Wrlz2HG6nr8CKEIMOuxTAZZ14rzTgQgMVOGxvyXaTP0oa39Z0+Cg9fHYoAymo8eAMqSBK3zY8j3mIY91zVrV4KDzdSPwgyfZa2CDlRmNdaugACQ1DSL0HpGITSNjqUdk+A0xf6kSRIsBq4bd74nXl122gw0nUDA3QEBCDbpUFxDYOy51ATNaNAqWjop92jzT0WO23jzldq2rzsOdQUhuEahJHt0g8M0BkQGILiwpWkQanr8FJ4GZRASOWHGg8hVWA0SNy+IAGTYezevKZNy6OuQ8vDlaRPGKBDIAA5rlieyHfhHANKfYePqlZtITE1MYa8jNgx8xodhoscHcIAnQIByE2PZcNlUIqKm2j3BPmptpc+nwICbs2MIzl+9CX5Nk+AouJLMJxJZp7Id5GTHjvhOK63dAsEBqHcqUFRheaMyqZ+frnYjxACa4yB2xckjJn+YpefunYfqiC8pZurYxhwA+yp52bEsjHfxac/dGCPM7IwzcaxX90AZKfbyEq1jpk2a7aVVdlJdPUH+fPyFN3DAJBulOfUAyEVWZYwyhKN3X7Ot3hZ7LKRNs5SSUgVqKogxqjrxiCsGwbI70U3xmXzO1IUiM4UBaIzRYHoTLof9l5PKYqCECL8iVQmkwlJmuDGzGWKGEhnZyfHjx/nzjvvJC7u+m7snDhxArPZzG233RZxHj09PdTV1VFVVUVNTQ2NjY309PQQCATCYCYrRVFwOp28/PLL2O32iOKKGEh/fz87duzg448/5oUXXuDmm2+OuHImKrfbzXvvvUdhYSHbt2+fNBBFUTh9+jQHDx7kyJEj1NTU4PF4CAaDU3LEkFRVZeHChfj9/ojziBiIJEkEg0E+/fRTKioq2LRpEw899BA227VZtCspKaGgoICjR4+iKAqyPLnur6qqit27d3Pw4EFaW1sBkGUZSZIwGMbf2JqIVFWddFyXa0p9yFBh6urq2Lp1K8eOHeP5558nLy9vWgoII13R0tKCwWCYdKEPHjzIq6++SmVlJbIsXwFgOvoN0ByoKFN7FmVaOnVZlgkGgxw4cIDy8nKefvppHnzwwSm75eTJkxQUFHDkyBEURYnoSv7oo4/Ytm0bHR0dI9KrqoqqqphMJhITE0lKSiI+Ph6r1TqlqzwjI4OYmInd+TKapm2UNdwtW7Zs4dtvv43YLW63m3379lFYWEhzc3NErgD47rvveOmll+js7AzDGHLB/PnzWbVqFStWrGDx4sWkpKQQGxuL0WiMeIQkSRKyLGM2myNKD9dg2DtVt0yHK0CDumvXLpqamjAatWKqqkpycjKPP/44Dz/8MPPmzYu48q+Vrsk85HK3DPUtubm5V63A999/n927d1/hCiHEpCvu0KFDnDhxYgSMjIwMXnvtNdauXXu96nfSmlYgZrOZQCCAqqph+waDQfbv3z/CLVbryD2M0tJSCgoKKC4uvsIVqqpis9nw+/0T7nQVReHLL7/E5/NhNBoRQmCxWNi+ffukYHi9Xvr7J3c3oyzLJCUlRdwPTRsQRVG46667yM3NpaioiPb2dgwGQ9gttbW1Ybc899xz5Obm0tPTw759+0Z1xVCHe++997JkyRJ27dpFIBCYUCxdXV2cOXNmRF7Lli1j3bp1kyrTZ599xptvvjnhyhVC4HK5eOedd0hNTZ1ZIEIIHA4HW7duZcWKFRQUFPD999+HmxtZlgkEAnzyySecOnWKRx55hJMnT3Lo0KErXKEoCpmZmTz11FM89thjlJSUTCqW7u5uurq6ws2cEIJly5YRHz+5p3C7uro4e/ZseL4ynhRFwev1EgqFIq7HaW2yhpqUVatWkZuby969e0d1S3V1Na+88gqgWfxyV6xdu5bNmzezdOnScEEno1AoNCKNJEmThjGUbrIjPJPJNKVh8zVbXBxyy8qVK9m5c+cVbrlcw12xfv36iCpwSDabDYvFEj6fEILm5uZJ56OqKqFQ6KoVPPyCAsYs30R1zVd7V65cSU5ODnv27OHdd98Nu2V4oUdzxVRkt9tJS0vjwoUL4UorKSmhubkZp9M54XxycnJYv379VSu4tLSU8+fPh4+Z6jD6uiy/OxwOtm3bFnbL8ePHUVUVIcS0uWK4EhISWL58OaWlpYAGpLKyksLCQl588cXwUHg8rVmzhvz8/DF/lySJTZs28dtvv13hkkh1XTeoVq1axQcffMDmzZtxOp3cc889fPjhhzz55JPTBmNI69atY9asWeF+TQjBnj172LlzJ263e8L5SJI05mcsTWVN7LrvGDocDrZs2cKBAwfYvXv3tDRRo+mOO+7gvvvuQ1W1F9ZIkoTX6+WNN97g0UcfZf/+/bS2tk55QXG6Z/ozsmMoyzI5OTnX9Bwmk4lnn32WM2fOUFZWFl6jUlWVo0ePUlJSQlZWFkuXLiUvL485c+aQnJyMxWKZ8OKgJEl0d3dPK5R/6i3cefPm8frrr/PMM8/w448/jtj/CIVCnDt3LjyBNJlMmM1mjEbjpNbPBgYGRhw/Vcf9UwMBWLJkCXv37mXnzp188cUX4QocGp4OdcaKokx6mQSmv8n6Xdx1kpWVxVtvvcXbb79Nfn4+sbGx4c2kodEeXL0Dn2jHPrTPEqmm5JDhJ59qIFeTEGLK+VssFu6//37uvvtufvrpJ4qLiykrK6O2tha3243f7w8veUTa7KiqGvENEkOK+N7evr4+Pv/8c3p7e8OdZW5uLqtXr444mLHU0NDAV199NQLI6tWryc7OnlK+AwMDtLS00NTURGtrK93d3fh8vohvehBCkJSUxAMPPBDxMD56s7XO9LvoQ24kRYHoTFEgOlMUiM4UBaIzTWkeUtPmpd+vkpdho2dAobrVyyKnlQSrlq3HG6Kqxctip424wfeQNLsDdPUFyU2PxeMN0eYJcFOaDW9ApaHDx8I0K519QQb8KvNSLHi8ISqbBggpgkyHhUyHmWZ3gKCijvmCs4ZOH7VtPpJijWQ7bZhNMoGQytnGAQb8CvY4E9kuGx5viJo2H9kuG7IE1W0+smZb8QYUKpsGEIDZKJGXEYc3oGixptoIKirVbV4WpFgxm2SEgKqWATr6gliMMnmZsZgjfKYxYocIAf841cnubxpp7Qny3a9u/vr1xREvjCk576HwcCM/1F56V255XS//+b8XqGzqp6HTz9/KOxFC0Nkb5EBZO/6gyukL/Rw+061VboefT0rbqOvw0TOgTdx+quvlWGXPqHFVNPTxX8daaHb7OXrOzfGqnsGLQ+F/SlqpbBqgo1e7WaKxy89fv77I0XNuen0KB8ra6POF8IdUKi708d/HW6lt9yGEoL7Dx9/KO1GF0I4tbcfj1baJVSH4+6lOTp730NwTIKTMwPK7ogoCIYE93khZjYfadh/OpBjtgX7AH1SpbBpgTZ6dsxf7CQ4LMjnexOGzbjzewZsBhPZn+JRIIML/jbLE7AQTsxNN4Yth6PfLdbyqhzsWJPDn5Sn8a3YSyfEm1MFDZUnCHmcMv0tFFVosp+p7qWv3hb+bnRDD3bfYSUuK4d+XOMIuCIcnGMxzWLxCewlO+iwz1pjIe4KIUwYVQVBR+UNWIt//2oMkwcI0G55BIPUdPi50+pCA2nYvF7v8gwUW5KbHkhJv4ug5t5aZpP1RBSBJqGJkdSsq9PkUFPXStxJXriOJwYoxGSV6vCFOnu9hf2k7fT4FSdLO3e9XCYSGNq0gNSGG5QsS+PqXrvD3Q78NxTuaJAnky96W5g2oeAMKU5lqRwwkEFIJKoJsl41Ys8yiNBvJ8aawQ8rr+8h0WJgVa8Q5y8yp+t5wQWVZ4k83z8I9EMIfVBECEm0GjAaJA2VtlNX0kmkf2T9IkkTvYBMhSVqb/c3pbgb8w+4uAW5fkMD3v/VQWu0ZjFOMcJNBJhzjUIX/8aYEbDEy3X3aex8vhxKGPZSPpL3N7quKLs63esOLjAZZwh9UR4CdrAw7duzYEWniRJuRrNlW5jgsLHLacMQZSY43YY8zoaiClYsSuTkzjqxUK2ajTGpiDBaTTFpiDBl2C3OStY8zyYzFJDMvxUqfTyHbZeOPCxMxGiRMBolYiwFZknAM5m0xyVhMBsxGmQy7ZcSbgJxJZlITY+juD7FgtpV/mReHMykGk0EmzqzlE2814EwyYzRIOOJjyHRYmJdsxWU3MzfZgtEgYZC15i19lhlZ1uJIToghLdGMQZaINRsxGCRSBmOyxhgwGWVijDIZdi3vSBRdy9KZovMQnSkKRGeKAtGZokB0pigQnSkKRGeKAtGZokB0pigQnSkKRGeKAtGZokB0pigQnSkKRGeKAtGZokB0pigQnen/AUT6f4UtKsg3AAAAJXRFWHRkYXRlOmNyZWF0ZQAyMDI0LTAxLTIxVDE1OjMwOjE0KzAwOjAw3KxkFQAAACV0RVh0ZGF0ZTptb2RpZnkAMjAyNC0wMS0yMVQxNTozMDoxNCswMDowMK3x3KkAAAAodEVYdGRhdGU6dGltZXN0YW1wADIwMjQtMDEtMjFUMTU6MzA6MzIrMDA6MDDbEc8xAAAAAElFTkSuQmCC;" vertex="1" parent="1">
          <mxGeometry x="364" y="469" width="100" height="100" as="geometry" />
        </mxCell>
      </root>
    </mxGraphModel>
  </diagram>
  <diagram id="6cPIw1AiCYWQgbskYdp_" name="RIGHT JOIN">
    <mxGraphModel dx="1050" dy="522" grid="0" gridSize="10" guides="1" tooltips="1" connect="1" arrows="1" fold="1" page="1" pageScale="1" pageWidth="827" pageHeight="569" math="0" shadow="0">
      <root>
        <mxCell id="0" />
        <mxCell id="1" parent="0" />
        <mxCell id="4Poazy7Tbs37JBBWvyoF-1" value="&lt;div style=&quot;text-align: justify;&quot;&gt;&lt;b style=&quot;background-color: initial;&quot;&gt;&lt;font style=&quot;font-size: 14px;&quot;&gt;T1&lt;/font&gt;&lt;/b&gt;&lt;/div&gt;" style="ellipse;whiteSpace=wrap;html=1;aspect=fixed;align=center;" parent="1" vertex="1">
          <mxGeometry x="200" y="120" width="100" height="100" as="geometry" />
        </mxCell>
        <mxCell id="4Poazy7Tbs37JBBWvyoF-2" value="&lt;b&gt;&lt;font style=&quot;font-size: 15px;&quot;&gt;T2&lt;/font&gt;&lt;/b&gt;" style="ellipse;whiteSpace=wrap;html=1;aspect=fixed;fillColor=#FF0000;" parent="1" vertex="1">
          <mxGeometry x="270" y="120" width="100" height="100" as="geometry" />
        </mxCell>
        <mxCell id="4Poazy7Tbs37JBBWvyoF-3" value="" style="whiteSpace=wrap;html=1;shape=mxgraph.basic.pointed_oval;fillColor=#FF0000;" parent="1" vertex="1">
          <mxGeometry x="264" y="134" width="42" height="72" as="geometry" />
        </mxCell>
        <mxCell id="eisnLrh3slqxoqSGw0ug-1" value="SELECT * &lt;br&gt;FROM T1 &lt;br&gt;RIGHT JOIN T2 &lt;br&gt;&lt;span style=&quot;white-space: pre;&quot;&gt;&#x9;&lt;/span&gt;ON T1.ID = T2.ID" style="text;strokeColor=none;align=left;fillColor=none;html=1;verticalAlign=middle;whiteSpace=wrap;rounded=0;" parent="1" vertex="1">
          <mxGeometry x="200" y="236" width="190" height="43" as="geometry" />
        </mxCell>
        <mxCell id="vua6vfEd7FoUknWF8bPA-1" value="&lt;div style=&quot;text-align: justify;&quot;&gt;&lt;b style=&quot;background-color: initial;&quot;&gt;&lt;font style=&quot;font-size: 14px;&quot;&gt;T1&lt;/font&gt;&lt;/b&gt;&lt;/div&gt;" style="ellipse;whiteSpace=wrap;html=1;aspect=fixed;align=center;" parent="1" vertex="1">
          <mxGeometry x="457" y="120" width="100" height="100" as="geometry" />
        </mxCell>
        <mxCell id="vua6vfEd7FoUknWF8bPA-2" value="&lt;b&gt;&lt;font style=&quot;font-size: 15px;&quot;&gt;T2&lt;/font&gt;&lt;/b&gt;" style="ellipse;whiteSpace=wrap;html=1;aspect=fixed;fillColor=#FF0000;" parent="1" vertex="1">
          <mxGeometry x="527" y="120" width="100" height="100" as="geometry" />
        </mxCell>
        <mxCell id="vua6vfEd7FoUknWF8bPA-3" value="" style="whiteSpace=wrap;html=1;shape=mxgraph.basic.pointed_oval" parent="1" vertex="1">
          <mxGeometry x="521" y="134" width="42" height="72" as="geometry" />
        </mxCell>
        <mxCell id="1Ab2yxzjzFEI1c_Vdr_R-1" value="SELECT * &lt;br&gt;FROM T1 &lt;br&gt;RIGHT JOIN T2&lt;br&gt;&lt;span style=&quot;white-space: pre;&quot;&gt;&#x9;&lt;/span&gt;ON T1.ID = T2.ID&lt;br&gt;WHERE T1.ID IS NULL" style="text;strokeColor=none;align=left;fillColor=none;html=1;verticalAlign=middle;whiteSpace=wrap;rounded=0;" parent="1" vertex="1">
          <mxGeometry x="457" y="236" width="190" height="43" as="geometry" />
        </mxCell>
        <mxCell id="4u0R_48Zpc2IUcRWImb7-1" value="&lt;span style=&quot;color: rgb(0, 0, 0); font-family: Helvetica; font-size: 50px; font-style: normal; font-variant-ligatures: normal; font-variant-caps: normal; font-weight: 700; letter-spacing: normal; orphans: 2; text-align: center; text-indent: 0px; text-transform: none; widows: 2; word-spacing: 0px; -webkit-text-stroke-width: 0px; background-color: rgb(251, 251, 251); text-decoration-thickness: initial; text-decoration-style: initial; text-decoration-color: initial; float: none; display: inline !important;&quot;&gt;RIGHT JOIN&lt;/span&gt;" style="text;whiteSpace=wrap;html=1;" parent="1" vertex="1">
          <mxGeometry x="266" y="30" width="295" height="82" as="geometry" />
        </mxCell>
        <mxCell id="doJMH6g7LHHhLPTb-gCO-1" value="&lt;div style=&quot;font-size: 17px;&quot;&gt;&lt;div style=&quot;text-align: left;&quot;&gt;&lt;br&gt;&lt;/div&gt;&lt;b&gt;&lt;span style=&quot;text-align: start; background-color: initial;&quot;&gt;Specifies a join between two tables with an explicit join clause, preserving unmatched rows from T2 table.&lt;/span&gt;&lt;/b&gt;&lt;/div&gt;" style="text;strokeColor=none;align=center;fillColor=none;html=1;verticalAlign=middle;whiteSpace=wrap;rounded=0;" parent="1" vertex="1">
          <mxGeometry x="166" y="311" width="512.6" height="90" as="geometry" />
        </mxCell>
        <mxCell id="WdvAG0VCRnAfruuWVAgd-1" value="" style="endArrow=classic;html=1;rounded=0;" edge="1" parent="1">
          <mxGeometry width="50" height="50" relative="1" as="geometry">
            <mxPoint x="297" y="294" as="sourcePoint" />
            <mxPoint x="337" y="343" as="targetPoint" />
          </mxGeometry>
        </mxCell>
        <mxCell id="aHrvzBvj2xt0IdbNJR6x-1" value="" style="shape=image;verticalLabelPosition=bottom;labelBackgroundColor=default;verticalAlign=top;aspect=fixed;imageAspect=0;image=data:image/png,iVBORw0KGgoAAAANSUhEUgAAAGQAAABkCAYAAABw4pVUAAAAIGNIUk0AAHomAACAhAAA+gAAAIDoAAB1MAAA6mAAADqYAAAXcJy6UTwAAAAGYktHRAD/AP8A/6C9p5MAAAAHdElNRQfoARUPHiCIF+V4AAAQOElEQVR42u2ceXAU1b7HP90zk1myMpOQzCRhi0AWlYeg91YBjzJcfTxLyrr+4VaUz7KuUJZVWC7IUpZFqf8QLPV5q5RAFH3+8eqp4MK916dPCIhCSNRgZImGrJB9m0yWWbvP+6OTIYGEJJNAmut8qyapmulz+nfOp79n7W5JCCGISjeSZzqAqEYqCkRnigLRmaJAdKYoEJ0pCkRnigLRmaJAdKYoEJ0pCkRnigLRmaJAdKYoEJ0pCkRnigLRmaJAdKYoEJ3phgEyEFAIhNRxj+vqD/J/v3Rx5mI/AIGQykBAmenwJyzjTAcwEZXX93KgrB17rIn/WJWGPc406nFCwKdl7XxV0YUzycyGfBffnO6ioy/I/bensHRu/EwXZVzp3iHldb0UFTfza9MAZdUe6jp8Yx7b0hOgvK4PCQipguo2L6XVvfzaNEBRcTPldb0zXZxxpWsg5fW9FB1ppqM3iCTBIqeNucmWMY+vaOijsy+IABamWflDVgIL06xIEnT0Bik6on8ougVyqr6Pd4s1GCBYlGbjL3e6cIzRXPmCKmU1HhRVYDLILJ+fQGpiDH+508WiNBsg6OgN8u6RZk7V98108caULoH8XN9HUXET7cNgbFyTTobdPGaaunYfNW1eJAmcSTHkZdgAyLCb2bgmPQylvTdIUXETP+sUiu6A/NzQR9GRSzAWptnYkH91GAA/1Hro92ujqSVz45gVe8lJGXYzG/LTWTgcypEmfm7QHxRdAalo0JzR5tFg3JRqY2O+i0zH1WF094fCzVCs2cDyBVeOpjIdZjbmu7gpVYPS5tGcUqEzKLoBUtHQx97LYaxxkemwjJv2bGM/ze4AQsCC2Vbmp1hHPS7TYWHjmpFQ9uoMii6AVFwY6Yys2VY25LuYMwEYiiooq/YQDKkYZInlC+KxmMYu1hyHhY35LrJm69MpMw7kfKuXouJmWj3a0FZzRvpVh7fDdbHLT2XTAJIEjjgTS+aMP/mbk3zJKZIErR5tSFzd6p3p6ph5IJVN/bS4/cgSGGWJu2+1TxgGaBNH90AIISAvI5bUxJgJpZubbOHfbrVjlCVkCVrcfs419c90dcw8kFsy45jjsKAKQUgV/KO8k/MTvFL7/Qo/1vUihMBskrk9KwFZmth5z7d6+Xt5JyFVoArBHIeFWzLjZro6Zh7I3GQLT+S7yLBbEEJQ1+Flz6HGCTUfVS1eGgaXUjLtFhY7bRM6Z3Wrlz2HG6nr8CKEIMOuxTAZZ14rzTgQgMVOGxvyXaTP0oa39Z0+Cg9fHYoAymo8eAMqSBK3zY8j3mIY91zVrV4KDzdSPwgyfZa2CDlRmNdaugACQ1DSL0HpGITSNjqUdk+A0xf6kSRIsBq4bd74nXl122gw0nUDA3QEBCDbpUFxDYOy51ATNaNAqWjop92jzT0WO23jzldq2rzsOdQUhuEahJHt0g8M0BkQGILiwpWkQanr8FJ4GZRASOWHGg8hVWA0SNy+IAGTYezevKZNy6OuQ8vDlaRPGKBDIAA5rlieyHfhHANKfYePqlZtITE1MYa8jNgx8xodhoscHcIAnQIByE2PZcNlUIqKm2j3BPmptpc+nwICbs2MIzl+9CX5Nk+AouJLMJxJZp7Id5GTHjvhOK63dAsEBqHcqUFRheaMyqZ+frnYjxACa4yB2xckjJn+YpefunYfqiC8pZurYxhwA+yp52bEsjHfxac/dGCPM7IwzcaxX90AZKfbyEq1jpk2a7aVVdlJdPUH+fPyFN3DAJBulOfUAyEVWZYwyhKN3X7Ot3hZ7LKRNs5SSUgVqKogxqjrxiCsGwbI70U3xmXzO1IUiM4UBaIzRYHoTLof9l5PKYqCECL8iVQmkwlJmuDGzGWKGEhnZyfHjx/nzjvvJC7u+m7snDhxArPZzG233RZxHj09PdTV1VFVVUVNTQ2NjY309PQQCATCYCYrRVFwOp28/PLL2O32iOKKGEh/fz87duzg448/5oUXXuDmm2+OuHImKrfbzXvvvUdhYSHbt2+fNBBFUTh9+jQHDx7kyJEj1NTU4PF4CAaDU3LEkFRVZeHChfj9/ojziBiIJEkEg0E+/fRTKioq2LRpEw899BA227VZtCspKaGgoICjR4+iKAqyPLnur6qqit27d3Pw4EFaW1sBkGUZSZIwGMbf2JqIVFWddFyXa0p9yFBh6urq2Lp1K8eOHeP5558nLy9vWgoII13R0tKCwWCYdKEPHjzIq6++SmVlJbIsXwFgOvoN0ByoKFN7FmVaOnVZlgkGgxw4cIDy8nKefvppHnzwwSm75eTJkxQUFHDkyBEURYnoSv7oo4/Ytm0bHR0dI9KrqoqqqphMJhITE0lKSiI+Ph6r1TqlqzwjI4OYmInd+TKapm2UNdwtW7Zs4dtvv43YLW63m3379lFYWEhzc3NErgD47rvveOmll+js7AzDGHLB/PnzWbVqFStWrGDx4sWkpKQQGxuL0WiMeIQkSRKyLGM2myNKD9dg2DtVt0yHK0CDumvXLpqamjAatWKqqkpycjKPP/44Dz/8MPPmzYu48q+Vrsk85HK3DPUtubm5V63A999/n927d1/hCiHEpCvu0KFDnDhxYgSMjIwMXnvtNdauXXu96nfSmlYgZrOZQCCAqqph+waDQfbv3z/CLVbryD2M0tJSCgoKKC4uvsIVqqpis9nw+/0T7nQVReHLL7/E5/NhNBoRQmCxWNi+ffukYHi9Xvr7J3c3oyzLJCUlRdwPTRsQRVG46667yM3NpaioiPb2dgwGQ9gttbW1Ybc899xz5Obm0tPTw759+0Z1xVCHe++997JkyRJ27dpFIBCYUCxdXV2cOXNmRF7Lli1j3bp1kyrTZ599xptvvjnhyhVC4HK5eOedd0hNTZ1ZIEIIHA4HW7duZcWKFRQUFPD999+HmxtZlgkEAnzyySecOnWKRx55hJMnT3Lo0KErXKEoCpmZmTz11FM89thjlJSUTCqW7u5uurq6ws2cEIJly5YRHz+5p3C7uro4e/ZseL4ynhRFwev1EgqFIq7HaW2yhpqUVatWkZuby969e0d1S3V1Na+88gqgWfxyV6xdu5bNmzezdOnScEEno1AoNCKNJEmThjGUbrIjPJPJNKVh8zVbXBxyy8qVK9m5c+cVbrlcw12xfv36iCpwSDabDYvFEj6fEILm5uZJ56OqKqFQ6KoVPPyCAsYs30R1zVd7V65cSU5ODnv27OHdd98Nu2V4oUdzxVRkt9tJS0vjwoUL4UorKSmhubkZp9M54XxycnJYv379VSu4tLSU8+fPh4+Z6jD6uiy/OxwOtm3bFnbL8ePHUVUVIcS0uWK4EhISWL58OaWlpYAGpLKyksLCQl588cXwUHg8rVmzhvz8/DF/lySJTZs28dtvv13hkkh1XTeoVq1axQcffMDmzZtxOp3cc889fPjhhzz55JPTBmNI69atY9asWeF+TQjBnj172LlzJ263e8L5SJI05mcsTWVN7LrvGDocDrZs2cKBAwfYvXv3tDRRo+mOO+7gvvvuQ1W1F9ZIkoTX6+WNN97g0UcfZf/+/bS2tk55QXG6Z/ozsmMoyzI5OTnX9Bwmk4lnn32WM2fOUFZWFl6jUlWVo0ePUlJSQlZWFkuXLiUvL485c+aQnJyMxWKZ8OKgJEl0d3dPK5R/6i3cefPm8frrr/PMM8/w448/jtj/CIVCnDt3LjyBNJlMmM1mjEbjpNbPBgYGRhw/Vcf9UwMBWLJkCXv37mXnzp188cUX4QocGp4OdcaKokx6mQSmv8n6Xdx1kpWVxVtvvcXbb79Nfn4+sbGx4c2kodEeXL0Dn2jHPrTPEqmm5JDhJ59qIFeTEGLK+VssFu6//37uvvtufvrpJ4qLiykrK6O2tha3243f7w8veUTa7KiqGvENEkOK+N7evr4+Pv/8c3p7e8OdZW5uLqtXr444mLHU0NDAV199NQLI6tWryc7OnlK+AwMDtLS00NTURGtrK93d3fh8vohvehBCkJSUxAMPPBDxMD56s7XO9LvoQ24kRYHoTFEgOlMUiM4UBaIzTWkeUtPmpd+vkpdho2dAobrVyyKnlQSrlq3HG6Kqxctip424wfeQNLsDdPUFyU2PxeMN0eYJcFOaDW9ApaHDx8I0K519QQb8KvNSLHi8ISqbBggpgkyHhUyHmWZ3gKCijvmCs4ZOH7VtPpJijWQ7bZhNMoGQytnGAQb8CvY4E9kuGx5viJo2H9kuG7IE1W0+smZb8QYUKpsGEIDZKJGXEYc3oGixptoIKirVbV4WpFgxm2SEgKqWATr6gliMMnmZsZgjfKYxYocIAf841cnubxpp7Qny3a9u/vr1xREvjCk576HwcCM/1F56V255XS//+b8XqGzqp6HTz9/KOxFC0Nkb5EBZO/6gyukL/Rw+061VboefT0rbqOvw0TOgTdx+quvlWGXPqHFVNPTxX8daaHb7OXrOzfGqnsGLQ+F/SlqpbBqgo1e7WaKxy89fv77I0XNuen0KB8ra6POF8IdUKi708d/HW6lt9yGEoL7Dx9/KO1GF0I4tbcfj1baJVSH4+6lOTp730NwTIKTMwPK7ogoCIYE93khZjYfadh/OpBjtgX7AH1SpbBpgTZ6dsxf7CQ4LMjnexOGzbjzewZsBhPZn+JRIIML/jbLE7AQTsxNN4Yth6PfLdbyqhzsWJPDn5Sn8a3YSyfEm1MFDZUnCHmcMv0tFFVosp+p7qWv3hb+bnRDD3bfYSUuK4d+XOMIuCIcnGMxzWLxCewlO+iwz1pjIe4KIUwYVQVBR+UNWIt//2oMkwcI0G55BIPUdPi50+pCA2nYvF7v8gwUW5KbHkhJv4ug5t5aZpP1RBSBJqGJkdSsq9PkUFPXStxJXriOJwYoxGSV6vCFOnu9hf2k7fT4FSdLO3e9XCYSGNq0gNSGG5QsS+PqXrvD3Q78NxTuaJAnky96W5g2oeAMKU5lqRwwkEFIJKoJsl41Ys8yiNBvJ8aawQ8rr+8h0WJgVa8Q5y8yp+t5wQWVZ4k83z8I9EMIfVBECEm0GjAaJA2VtlNX0kmkf2T9IkkTvYBMhSVqb/c3pbgb8w+4uAW5fkMD3v/VQWu0ZjFOMcJNBJhzjUIX/8aYEbDEy3X3aex8vhxKGPZSPpL3N7quKLs63esOLjAZZwh9UR4CdrAw7duzYEWniRJuRrNlW5jgsLHLacMQZSY43YY8zoaiClYsSuTkzjqxUK2ajTGpiDBaTTFpiDBl2C3OStY8zyYzFJDMvxUqfTyHbZeOPCxMxGiRMBolYiwFZknAM5m0xyVhMBsxGmQy7ZcSbgJxJZlITY+juD7FgtpV/mReHMykGk0EmzqzlE2814EwyYzRIOOJjyHRYmJdsxWU3MzfZgtEgYZC15i19lhlZ1uJIToghLdGMQZaINRsxGCRSBmOyxhgwGWVijDIZdi3vSBRdy9KZovMQnSkKRGeKAtGZokB0pigQnSkKRGeKAtGZokB0pigQnSkKRGeKAtGZokB0pigQnSkKRGeKAtGZokB0pigQnen/AUT6f4UtKsg3AAAAJXRFWHRkYXRlOmNyZWF0ZQAyMDI0LTAxLTIxVDE1OjMwOjE0KzAwOjAw3KxkFQAAACV0RVh0ZGF0ZTptb2RpZnkAMjAyNC0wMS0yMVQxNTozMDoxNCswMDowMK3x3KkAAAAodEVYdGRhdGU6dGltZXN0YW1wADIwMjQtMDEtMjFUMTU6MzA6MzIrMDA6MDDbEc8xAAAAAElFTkSuQmCC;" vertex="1" parent="1">
          <mxGeometry x="364" y="469" width="100" height="100" as="geometry" />
        </mxCell>
      </root>
    </mxGraphModel>
  </diagram>
  <diagram id="9YnTLYm-FB84CzhnugCO" name="FULL OUTER">
    <mxGraphModel dx="1050" dy="522" grid="0" gridSize="10" guides="1" tooltips="1" connect="1" arrows="1" fold="1" page="1" pageScale="1" pageWidth="827" pageHeight="569" math="0" shadow="0">
      <root>
        <mxCell id="0" />
        <mxCell id="1" parent="0" />
        <mxCell id="mONnt_2UF7BDesqr8fns-1" value="&lt;b style=&quot;border-color: var(--border-color);&quot;&gt;&lt;font style=&quot;border-color: var(--border-color); font-size: 15px;&quot;&gt;T2&lt;/font&gt;&lt;/b&gt;" style="ellipse;whiteSpace=wrap;html=1;aspect=fixed;fillColor=#FF0000;" parent="1" vertex="1">
          <mxGeometry x="268" y="120" width="100" height="100" as="geometry" />
        </mxCell>
        <mxCell id="mONnt_2UF7BDesqr8fns-2" value="&lt;b style=&quot;border-color: var(--border-color); text-align: justify; background-color: initial;&quot;&gt;&lt;font style=&quot;border-color: var(--border-color); font-size: 14px;&quot;&gt;T1&lt;/font&gt;&lt;/b&gt;" style="ellipse;whiteSpace=wrap;html=1;aspect=fixed;fillColor=#FF0000;" parent="1" vertex="1">
          <mxGeometry x="200" y="120" width="100" height="100" as="geometry" />
        </mxCell>
        <mxCell id="mONnt_2UF7BDesqr8fns-3" value="" style="whiteSpace=wrap;html=1;shape=mxgraph.basic.pointed_oval;fillColor=#FF0000;" parent="1" vertex="1">
          <mxGeometry x="264" y="134" width="42" height="72" as="geometry" />
        </mxCell>
        <mxCell id="e2unDVTdpac0gwMS_WzC-1" value="&lt;span style=&quot;color: rgb(0, 0, 0); font-family: Helvetica; font-size: 12px; font-style: normal; font-variant-ligatures: normal; font-variant-caps: normal; font-weight: 400; letter-spacing: normal; orphans: 2; text-align: left; text-indent: 0px; text-transform: none; widows: 2; word-spacing: 0px; -webkit-text-stroke-width: 0px; background-color: rgb(251, 251, 251); text-decoration-thickness: initial; text-decoration-style: initial; text-decoration-color: initial; float: none; display: inline !important;&quot;&gt;SELECT *&lt;/span&gt;&lt;br style=&quot;border-color: var(--border-color); color: rgb(0, 0, 0); font-family: Helvetica; font-size: 12px; font-style: normal; font-variant-ligatures: normal; font-variant-caps: normal; font-weight: 400; letter-spacing: normal; orphans: 2; text-align: left; text-indent: 0px; text-transform: none; widows: 2; word-spacing: 0px; -webkit-text-stroke-width: 0px; background-color: rgb(251, 251, 251); text-decoration-thickness: initial; text-decoration-style: initial; text-decoration-color: initial;&quot;&gt;&lt;span style=&quot;color: rgb(0, 0, 0); font-family: Helvetica; font-size: 12px; font-style: normal; font-variant-ligatures: normal; font-variant-caps: normal; font-weight: 400; letter-spacing: normal; orphans: 2; text-align: left; text-indent: 0px; text-transform: none; widows: 2; word-spacing: 0px; -webkit-text-stroke-width: 0px; background-color: rgb(251, 251, 251); text-decoration-thickness: initial; text-decoration-style: initial; text-decoration-color: initial; float: none; display: inline !important;&quot;&gt;FROM T1&lt;/span&gt;&lt;br style=&quot;border-color: var(--border-color); color: rgb(0, 0, 0); font-family: Helvetica; font-size: 12px; font-style: normal; font-variant-ligatures: normal; font-variant-caps: normal; font-weight: 400; letter-spacing: normal; orphans: 2; text-align: left; text-indent: 0px; text-transform: none; widows: 2; word-spacing: 0px; -webkit-text-stroke-width: 0px; background-color: rgb(251, 251, 251); text-decoration-thickness: initial; text-decoration-style: initial; text-decoration-color: initial;&quot;&gt;&lt;span style=&quot;color: rgb(0, 0, 0); font-family: Helvetica; font-size: 12px; font-style: normal; font-variant-ligatures: normal; font-variant-caps: normal; font-weight: 400; letter-spacing: normal; orphans: 2; text-align: left; text-indent: 0px; text-transform: none; widows: 2; word-spacing: 0px; -webkit-text-stroke-width: 0px; background-color: rgb(251, 251, 251); text-decoration-thickness: initial; text-decoration-style: initial; text-decoration-color: initial; float: none; display: inline !important;&quot;&gt;FULL [OUTER] JOIN T2&lt;br&gt;&lt;span style=&quot;white-space: pre;&quot;&gt;&#x9;&lt;/span&gt;ON T1.ID = T2.ID&lt;/span&gt;" style="text;whiteSpace=wrap;html=1;" parent="1" vertex="1">
          <mxGeometry x="200" y="229" width="232" height="65" as="geometry" />
        </mxCell>
        <mxCell id="oLGY1xSHbMbdILLTMtat-1" value="&lt;div style=&quot;text-align: justify;&quot;&gt;&lt;b style=&quot;background-color: initial;&quot;&gt;&lt;font style=&quot;font-size: 14px;&quot;&gt;T1&lt;/font&gt;&lt;/b&gt;&lt;/div&gt;" style="ellipse;whiteSpace=wrap;html=1;aspect=fixed;align=center;fillColor=#FF0000;" parent="1" vertex="1">
          <mxGeometry x="458" y="120" width="100" height="100" as="geometry" />
        </mxCell>
        <mxCell id="oLGY1xSHbMbdILLTMtat-2" value="&lt;b&gt;&lt;font style=&quot;font-size: 15px;&quot;&gt;T2&lt;/font&gt;&lt;/b&gt;" style="ellipse;whiteSpace=wrap;html=1;aspect=fixed;fillColor=#FF0000;" parent="1" vertex="1">
          <mxGeometry x="528" y="120" width="100" height="100" as="geometry" />
        </mxCell>
        <mxCell id="oLGY1xSHbMbdILLTMtat-3" value="" style="whiteSpace=wrap;html=1;shape=mxgraph.basic.pointed_oval;fillColor=default;" parent="1" vertex="1">
          <mxGeometry x="522" y="134" width="42" height="72" as="geometry" />
        </mxCell>
        <mxCell id="oLGY1xSHbMbdILLTMtat-4" value="&lt;span style=&quot;color: rgb(0, 0, 0); font-family: Helvetica; font-size: 12px; font-style: normal; font-variant-ligatures: normal; font-variant-caps: normal; font-weight: 400; letter-spacing: normal; orphans: 2; text-align: left; text-indent: 0px; text-transform: none; widows: 2; word-spacing: 0px; -webkit-text-stroke-width: 0px; background-color: rgb(251, 251, 251); text-decoration-thickness: initial; text-decoration-style: initial; text-decoration-color: initial; float: none; display: inline !important;&quot;&gt;SELECT *&lt;/span&gt;&lt;br style=&quot;border-color: var(--border-color); color: rgb(0, 0, 0); font-family: Helvetica; font-size: 12px; font-style: normal; font-variant-ligatures: normal; font-variant-caps: normal; font-weight: 400; letter-spacing: normal; orphans: 2; text-align: left; text-indent: 0px; text-transform: none; widows: 2; word-spacing: 0px; -webkit-text-stroke-width: 0px; background-color: rgb(251, 251, 251); text-decoration-thickness: initial; text-decoration-style: initial; text-decoration-color: initial;&quot;&gt;&lt;span style=&quot;color: rgb(0, 0, 0); font-family: Helvetica; font-size: 12px; font-style: normal; font-variant-ligatures: normal; font-variant-caps: normal; font-weight: 400; letter-spacing: normal; orphans: 2; text-align: left; text-indent: 0px; text-transform: none; widows: 2; word-spacing: 0px; -webkit-text-stroke-width: 0px; background-color: rgb(251, 251, 251); text-decoration-thickness: initial; text-decoration-style: initial; text-decoration-color: initial; float: none; display: inline !important;&quot;&gt;FROM T1&lt;/span&gt;&lt;br style=&quot;border-color: var(--border-color); color: rgb(0, 0, 0); font-family: Helvetica; font-size: 12px; font-style: normal; font-variant-ligatures: normal; font-variant-caps: normal; font-weight: 400; letter-spacing: normal; orphans: 2; text-align: left; text-indent: 0px; text-transform: none; widows: 2; word-spacing: 0px; -webkit-text-stroke-width: 0px; background-color: rgb(251, 251, 251); text-decoration-thickness: initial; text-decoration-style: initial; text-decoration-color: initial;&quot;&gt;&lt;span style=&quot;color: rgb(0, 0, 0); font-family: Helvetica; font-size: 12px; font-style: normal; font-variant-ligatures: normal; font-variant-caps: normal; font-weight: 400; letter-spacing: normal; orphans: 2; text-align: left; text-indent: 0px; text-transform: none; widows: 2; word-spacing: 0px; -webkit-text-stroke-width: 0px; background-color: rgb(251, 251, 251); text-decoration-thickness: initial; text-decoration-style: initial; text-decoration-color: initial; float: none; display: inline !important;&quot;&gt;FULL [OUTER] JOIN T2 &lt;br&gt;&lt;span style=&quot;white-space: pre;&quot;&gt;&#x9;&lt;/span&gt;ON T1.ID = T2.ID&lt;br&gt;WHERE T1.ID IS NULL OR T2.ID IS NULL&lt;br&gt;&lt;/span&gt;" style="text;whiteSpace=wrap;html=1;" parent="1" vertex="1">
          <mxGeometry x="458" y="229" width="232" height="65" as="geometry" />
        </mxCell>
        <mxCell id="1FnNS8xdY4-ZRl6tDhh--1" value="&lt;span style=&quot;color: rgb(0, 0, 0); font-family: Helvetica; font-size: 50px; font-style: normal; font-variant-ligatures: normal; font-variant-caps: normal; font-weight: 700; letter-spacing: normal; orphans: 2; text-align: center; text-indent: 0px; text-transform: none; widows: 2; word-spacing: 0px; -webkit-text-stroke-width: 0px; background-color: rgb(251, 251, 251); text-decoration-thickness: initial; text-decoration-style: initial; text-decoration-color: initial; float: none; display: inline !important;&quot;&gt;FULL [OUTER] JOIN&lt;/span&gt;" style="text;whiteSpace=wrap;html=1;" parent="1" vertex="1">
          <mxGeometry x="165" y="30" width="498" height="82" as="geometry" />
        </mxCell>
        <mxCell id="PDGw86EOecb2UenTv7dE-1" value="&lt;div style=&quot;font-size: 17px;&quot;&gt;&lt;div style=&quot;text-align: left;&quot;&gt;&lt;br&gt;&lt;/div&gt;&lt;b&gt;&lt;span style=&quot;text-align: start; background-color: initial;&quot;&gt;Specifies a join between two tables with an explicit join clause, preserving unmatched rows from T2 table.&lt;/span&gt;&lt;/b&gt;&lt;/div&gt;" style="text;strokeColor=none;align=center;fillColor=none;html=1;verticalAlign=middle;whiteSpace=wrap;rounded=0;" parent="1" vertex="1">
          <mxGeometry x="157.7" y="327" width="512.6" height="89" as="geometry" />
        </mxCell>
        <mxCell id="FG_QVQD0OEIQ_aVOyTKB-1" value="" style="endArrow=classic;html=1;rounded=0;" edge="1" parent="1">
          <mxGeometry width="50" height="50" relative="1" as="geometry">
            <mxPoint x="300" y="304" as="sourcePoint" />
            <mxPoint x="340" y="353" as="targetPoint" />
          </mxGeometry>
        </mxCell>
        <mxCell id="Ku04T7mgQq9N-xTz33Gk-1" value="" style="shape=image;verticalLabelPosition=bottom;labelBackgroundColor=default;verticalAlign=top;aspect=fixed;imageAspect=0;image=data:image/png,iVBORw0KGgoAAAANSUhEUgAAAGQAAABkCAYAAABw4pVUAAAAIGNIUk0AAHomAACAhAAA+gAAAIDoAAB1MAAA6mAAADqYAAAXcJy6UTwAAAAGYktHRAD/AP8A/6C9p5MAAAAHdElNRQfoARUPHiCIF+V4AAAQOElEQVR42u2ceXAU1b7HP90zk1myMpOQzCRhi0AWlYeg91YBjzJcfTxLyrr+4VaUz7KuUJZVWC7IUpZFqf8QLPV5q5RAFH3+8eqp4MK916dPCIhCSNRgZImGrJB9m0yWWbvP+6OTIYGEJJNAmut8qyapmulz+nfOp79n7W5JCCGISjeSZzqAqEYqCkRnigLRmaJAdKYoEJ0pCkRnigLRmaJAdKYoEJ0pCkRnigLRmaJAdKYoEJ0pCkRnigLRmaJAdKYoEJ3phgEyEFAIhNRxj+vqD/J/v3Rx5mI/AIGQykBAmenwJyzjTAcwEZXX93KgrB17rIn/WJWGPc406nFCwKdl7XxV0YUzycyGfBffnO6ioy/I/bensHRu/EwXZVzp3iHldb0UFTfza9MAZdUe6jp8Yx7b0hOgvK4PCQipguo2L6XVvfzaNEBRcTPldb0zXZxxpWsg5fW9FB1ppqM3iCTBIqeNucmWMY+vaOijsy+IABamWflDVgIL06xIEnT0Bik6on8ougVyqr6Pd4s1GCBYlGbjL3e6cIzRXPmCKmU1HhRVYDLILJ+fQGpiDH+508WiNBsg6OgN8u6RZk7V98108caULoH8XN9HUXET7cNgbFyTTobdPGaaunYfNW1eJAmcSTHkZdgAyLCb2bgmPQylvTdIUXETP+sUiu6A/NzQR9GRSzAWptnYkH91GAA/1Hro92ujqSVz45gVe8lJGXYzG/LTWTgcypEmfm7QHxRdAalo0JzR5tFg3JRqY2O+i0zH1WF094fCzVCs2cDyBVeOpjIdZjbmu7gpVYPS5tGcUqEzKLoBUtHQx97LYaxxkemwjJv2bGM/ze4AQsCC2Vbmp1hHPS7TYWHjmpFQ9uoMii6AVFwY6Yys2VY25LuYMwEYiiooq/YQDKkYZInlC+KxmMYu1hyHhY35LrJm69MpMw7kfKuXouJmWj3a0FZzRvpVh7fDdbHLT2XTAJIEjjgTS+aMP/mbk3zJKZIErR5tSFzd6p3p6ph5IJVN/bS4/cgSGGWJu2+1TxgGaBNH90AIISAvI5bUxJgJpZubbOHfbrVjlCVkCVrcfs419c90dcw8kFsy45jjsKAKQUgV/KO8k/MTvFL7/Qo/1vUihMBskrk9KwFZmth5z7d6+Xt5JyFVoArBHIeFWzLjZro6Zh7I3GQLT+S7yLBbEEJQ1+Flz6HGCTUfVS1eGgaXUjLtFhY7bRM6Z3Wrlz2HG6nr8CKEIMOuxTAZZ14rzTgQgMVOGxvyXaTP0oa39Z0+Cg9fHYoAymo8eAMqSBK3zY8j3mIY91zVrV4KDzdSPwgyfZa2CDlRmNdaugACQ1DSL0HpGITSNjqUdk+A0xf6kSRIsBq4bd74nXl122gw0nUDA3QEBCDbpUFxDYOy51ATNaNAqWjop92jzT0WO23jzldq2rzsOdQUhuEahJHt0g8M0BkQGILiwpWkQanr8FJ4GZRASOWHGg8hVWA0SNy+IAGTYezevKZNy6OuQ8vDlaRPGKBDIAA5rlieyHfhHANKfYePqlZtITE1MYa8jNgx8xodhoscHcIAnQIByE2PZcNlUIqKm2j3BPmptpc+nwICbs2MIzl+9CX5Nk+AouJLMJxJZp7Id5GTHjvhOK63dAsEBqHcqUFRheaMyqZ+frnYjxACa4yB2xckjJn+YpefunYfqiC8pZurYxhwA+yp52bEsjHfxac/dGCPM7IwzcaxX90AZKfbyEq1jpk2a7aVVdlJdPUH+fPyFN3DAJBulOfUAyEVWZYwyhKN3X7Ot3hZ7LKRNs5SSUgVqKogxqjrxiCsGwbI70U3xmXzO1IUiM4UBaIzRYHoTLof9l5PKYqCECL8iVQmkwlJmuDGzGWKGEhnZyfHjx/nzjvvJC7u+m7snDhxArPZzG233RZxHj09PdTV1VFVVUVNTQ2NjY309PQQCATCYCYrRVFwOp28/PLL2O32iOKKGEh/fz87duzg448/5oUXXuDmm2+OuHImKrfbzXvvvUdhYSHbt2+fNBBFUTh9+jQHDx7kyJEj1NTU4PF4CAaDU3LEkFRVZeHChfj9/ojziBiIJEkEg0E+/fRTKioq2LRpEw899BA227VZtCspKaGgoICjR4+iKAqyPLnur6qqit27d3Pw4EFaW1sBkGUZSZIwGMbf2JqIVFWddFyXa0p9yFBh6urq2Lp1K8eOHeP5558nLy9vWgoII13R0tKCwWCYdKEPHjzIq6++SmVlJbIsXwFgOvoN0ByoKFN7FmVaOnVZlgkGgxw4cIDy8nKefvppHnzwwSm75eTJkxQUFHDkyBEURYnoSv7oo4/Ytm0bHR0dI9KrqoqqqphMJhITE0lKSiI+Ph6r1TqlqzwjI4OYmInd+TKapm2UNdwtW7Zs4dtvv43YLW63m3379lFYWEhzc3NErgD47rvveOmll+js7AzDGHLB/PnzWbVqFStWrGDx4sWkpKQQGxuL0WiMeIQkSRKyLGM2myNKD9dg2DtVt0yHK0CDumvXLpqamjAatWKqqkpycjKPP/44Dz/8MPPmzYu48q+Vrsk85HK3DPUtubm5V63A999/n927d1/hCiHEpCvu0KFDnDhxYgSMjIwMXnvtNdauXXu96nfSmlYgZrOZQCCAqqph+waDQfbv3z/CLVbryD2M0tJSCgoKKC4uvsIVqqpis9nw+/0T7nQVReHLL7/E5/NhNBoRQmCxWNi+ffukYHi9Xvr7J3c3oyzLJCUlRdwPTRsQRVG46667yM3NpaioiPb2dgwGQ9gttbW1Ybc899xz5Obm0tPTw759+0Z1xVCHe++997JkyRJ27dpFIBCYUCxdXV2cOXNmRF7Lli1j3bp1kyrTZ599xptvvjnhyhVC4HK5eOedd0hNTZ1ZIEIIHA4HW7duZcWKFRQUFPD999+HmxtZlgkEAnzyySecOnWKRx55hJMnT3Lo0KErXKEoCpmZmTz11FM89thjlJSUTCqW7u5uurq6ws2cEIJly5YRHz+5p3C7uro4e/ZseL4ynhRFwev1EgqFIq7HaW2yhpqUVatWkZuby969e0d1S3V1Na+88gqgWfxyV6xdu5bNmzezdOnScEEno1AoNCKNJEmThjGUbrIjPJPJNKVh8zVbXBxyy8qVK9m5c+cVbrlcw12xfv36iCpwSDabDYvFEj6fEILm5uZJ56OqKqFQ6KoVPPyCAsYs30R1zVd7V65cSU5ODnv27OHdd98Nu2V4oUdzxVRkt9tJS0vjwoUL4UorKSmhubkZp9M54XxycnJYv379VSu4tLSU8+fPh4+Z6jD6uiy/OxwOtm3bFnbL8ePHUVUVIcS0uWK4EhISWL58OaWlpYAGpLKyksLCQl588cXwUHg8rVmzhvz8/DF/lySJTZs28dtvv13hkkh1XTeoVq1axQcffMDmzZtxOp3cc889fPjhhzz55JPTBmNI69atY9asWeF+TQjBnj172LlzJ263e8L5SJI05mcsTWVN7LrvGDocDrZs2cKBAwfYvXv3tDRRo+mOO+7gvvvuQ1W1F9ZIkoTX6+WNN97g0UcfZf/+/bS2tk55QXG6Z/ozsmMoyzI5OTnX9Bwmk4lnn32WM2fOUFZWFl6jUlWVo0ePUlJSQlZWFkuXLiUvL485c+aQnJyMxWKZ8OKgJEl0d3dPK5R/6i3cefPm8frrr/PMM8/w448/jtj/CIVCnDt3LjyBNJlMmM1mjEbjpNbPBgYGRhw/Vcf9UwMBWLJkCXv37mXnzp188cUX4QocGp4OdcaKokx6mQSmv8n6Xdx1kpWVxVtvvcXbb79Nfn4+sbGx4c2kodEeXL0Dn2jHPrTPEqmm5JDhJ59qIFeTEGLK+VssFu6//37uvvtufvrpJ4qLiykrK6O2tha3243f7w8veUTa7KiqGvENEkOK+N7evr4+Pv/8c3p7e8OdZW5uLqtXr444mLHU0NDAV199NQLI6tWryc7OnlK+AwMDtLS00NTURGtrK93d3fh8vohvehBCkJSUxAMPPBDxMD56s7XO9LvoQ24kRYHoTFEgOlMUiM4UBaIzTWkeUtPmpd+vkpdho2dAobrVyyKnlQSrlq3HG6Kqxctip424wfeQNLsDdPUFyU2PxeMN0eYJcFOaDW9ApaHDx8I0K519QQb8KvNSLHi8ISqbBggpgkyHhUyHmWZ3gKCijvmCs4ZOH7VtPpJijWQ7bZhNMoGQytnGAQb8CvY4E9kuGx5viJo2H9kuG7IE1W0+smZb8QYUKpsGEIDZKJGXEYc3oGixptoIKirVbV4WpFgxm2SEgKqWATr6gliMMnmZsZgjfKYxYocIAf841cnubxpp7Qny3a9u/vr1xREvjCk576HwcCM/1F56V255XS//+b8XqGzqp6HTz9/KOxFC0Nkb5EBZO/6gyukL/Rw+061VboefT0rbqOvw0TOgTdx+quvlWGXPqHFVNPTxX8daaHb7OXrOzfGqnsGLQ+F/SlqpbBqgo1e7WaKxy89fv77I0XNuen0KB8ra6POF8IdUKi708d/HW6lt9yGEoL7Dx9/KO1GF0I4tbcfj1baJVSH4+6lOTp730NwTIKTMwPK7ogoCIYE93khZjYfadh/OpBjtgX7AH1SpbBpgTZ6dsxf7CQ4LMjnexOGzbjzewZsBhPZn+JRIIML/jbLE7AQTsxNN4Yth6PfLdbyqhzsWJPDn5Sn8a3YSyfEm1MFDZUnCHmcMv0tFFVosp+p7qWv3hb+bnRDD3bfYSUuK4d+XOMIuCIcnGMxzWLxCewlO+iwz1pjIe4KIUwYVQVBR+UNWIt//2oMkwcI0G55BIPUdPi50+pCA2nYvF7v8gwUW5KbHkhJv4ug5t5aZpP1RBSBJqGJkdSsq9PkUFPXStxJXriOJwYoxGSV6vCFOnu9hf2k7fT4FSdLO3e9XCYSGNq0gNSGG5QsS+PqXrvD3Q78NxTuaJAnky96W5g2oeAMKU5lqRwwkEFIJKoJsl41Ys8yiNBvJ8aawQ8rr+8h0WJgVa8Q5y8yp+t5wQWVZ4k83z8I9EMIfVBECEm0GjAaJA2VtlNX0kmkf2T9IkkTvYBMhSVqb/c3pbgb8w+4uAW5fkMD3v/VQWu0ZjFOMcJNBJhzjUIX/8aYEbDEy3X3aex8vhxKGPZSPpL3N7quKLs63esOLjAZZwh9UR4CdrAw7duzYEWniRJuRrNlW5jgsLHLacMQZSY43YY8zoaiClYsSuTkzjqxUK2ajTGpiDBaTTFpiDBl2C3OStY8zyYzFJDMvxUqfTyHbZeOPCxMxGiRMBolYiwFZknAM5m0xyVhMBsxGmQy7ZcSbgJxJZlITY+juD7FgtpV/mReHMykGk0EmzqzlE2814EwyYzRIOOJjyHRYmJdsxWU3MzfZgtEgYZC15i19lhlZ1uJIToghLdGMQZaINRsxGCRSBmOyxhgwGWVijDIZdi3vSBRdy9KZovMQnSkKRGeKAtGZokB0pigQnSkKRGeKAtGZokB0pigQnSkKRGeKAtGZokB0pigQnSkKRGeKAtGZokB0pigQnen/AUT6f4UtKsg3AAAAJXRFWHRkYXRlOmNyZWF0ZQAyMDI0LTAxLTIxVDE1OjMwOjE0KzAwOjAw3KxkFQAAACV0RVh0ZGF0ZTptb2RpZnkAMjAyNC0wMS0yMVQxNTozMDoxNCswMDowMK3x3KkAAAAodEVYdGRhdGU6dGltZXN0YW1wADIwMjQtMDEtMjFUMTU6MzA6MzIrMDA6MDDbEc8xAAAAAElFTkSuQmCC;" vertex="1" parent="1">
          <mxGeometry x="364" y="469" width="100" height="100" as="geometry" />
        </mxCell>
      </root>
    </mxGraphModel>
  </diagram>
</mxfile>
